<?xml version="1.0" standalone="no"?>
<!DOCTYPE svg PUBLIC "-//W3C//DTD SVG 20010904//EN"
 "http://www.w3.org/TR/2001/REC-SVG-20010904/DTD/svg10.dtd">
<svg version="1.0" xmlns="http://www.w3.org/2000/svg"
 width="261.000000pt" height="395.000000pt" viewBox="0 0 261.000000 395.000000"
 preserveAspectRatio="xMidYMid meet">

<g transform="translate(0.000000,395.000000) scale(0.100000,-0.100000)"
fill="#000000" stroke="none">
<path d="M1050 3879 c-371 -20 -622 -69 -792 -155 -125 -63 -178 -130 -178
-224 0 -101 57 -166 205 -236 216 -101 582 -151 1040 -141 496 11 824 83 987
217 46 38 78 104 78 160 0 225 -374 357 -1085 383 -60 3 -175 1 -255 -4z m620
-254 c225 -29 455 -91 455 -124 0 -17 -89 -53 -200 -79 -391 -95 -998 -95
-1384 0 -95 23 -211 66 -211 78 0 13 98 51 194 75 110 28 264 52 406 65 154
13 592 4 740 -15z"/>
<path d="M895 2654 c-226 -35 -426 -138 -536 -276 -89 -112 -138 -268 -124
-388 19 -154 81 -201 265 -202 107 -1 167 23 207 82 34 53 38 99 18 225 -9 59
-17 147 -18 195 -1 75 2 94 24 136 32 63 88 105 180 135 66 21 92 24 234 24
151 0 163 -1 215 -26 77 -36 126 -82 161 -151 46 -92 60 -165 66 -358 11 -353
-46 -484 -250 -580 -71 -34 -361 -133 -747 -255 -212 -68 -371 -171 -448 -292
-97 -152 -108 -421 -25 -590 56 -115 213 -221 391 -265 74 -19 116 -22 282
-23 267 0 382 28 542 132 84 55 134 115 189 225 24 49 47 88 51 88 4 0 12 -19
18 -42 44 -171 132 -293 255 -354 118 -57 388 -72 515 -26 68 24 167 74 198
98 l22 19 -22 27 -23 28 -71 -36 c-130 -65 -252 -68 -325 -7 -67 57 -63 9 -69
958 l-6 860 -26 96 c-14 52 -40 123 -57 156 -104 206 -321 345 -611 388 -118
18 -355 18 -475 -1z m678 -1466 c-1 -189 -7 -385 -14 -436 -37 -315 -180 -519
-404 -578 -124 -33 -276 -26 -372 16 -63 28 -136 102 -171 173 -39 80 -55 166
-55 297 -1 183 40 287 158 405 86 87 138 114 439 235 126 50 252 102 280 117
56 28 116 79 116 100 0 7 6 13 13 13 9 0 12 -74 10 -342z"/>
</g>
</svg>
