<?xml version="1.0" standalone="no"?>
<!DOCTYPE svg PUBLIC "-//W3C//DTD SVG 20010904//EN"
 "http://www.w3.org/TR/2001/REC-SVG-20010904/DTD/svg10.dtd">
<svg version="1.0" xmlns="http://www.w3.org/2000/svg"
 width="1024.000000pt" height="77.000000pt" viewBox="0 0 1024.000000 77.000000"
 preserveAspectRatio="xMidYMid meet">

<g transform="translate(0.000000,77.000000) scale(0.100000,-0.100000)"
fill="#FFFFFF" stroke="none">
<path d="M230 696 c-98 -28 -172 -84 -186 -142 -4 -14 -4 -46 -1 -70 5 -49 39
-94 91 -121 45 -23 170 -42 281 -43 153 0 215 -24 215 -81 0 -35 -32 -66 -79
-76 -20 -5 -90 -8 -156 -8 -110 0 -125 2 -170 26 -43 22 -86 66 -97 99 -2 8
-112 -15 -127 -26 -2 -2 9 -28 23 -59 32 -65 92 -115 169 -142 42 -15 83 -18
212 -18 142 1 166 3 217 23 31 13 69 32 83 44 62 48 85 171 45 236 -36 59
-107 83 -278 93 -238 15 -292 31 -292 84 0 32 28 52 100 71 130 33 276 3 317
-66 20 -35 19 -35 95 -14 36 11 58 22 58 31 0 8 -26 41 -58 73 -79 78 -147
100 -306 99 -61 0 -131 -6 -156 -13z"/>
<path d="M1379 683 c-28 -73 -229 -639 -229 -645 0 -5 29 -8 64 -8 l63 0 38
105 37 105 167 0 167 0 38 -105 38 -105 64 0 c35 0 64 3 64 8 0 4 -22 70 -50
147 -28 77 -81 226 -118 330 l-67 190 -133 3 -132 3 -11 -28z m203 -151 c31
-86 55 -158 54 -160 -2 -1 -55 -1 -118 0 l-116 3 57 157 c31 87 58 158 61 158
3 0 31 -71 62 -158z"/>
<path d="M2302 373 l3 -338 65 0 65 0 5 325 5 325 165 -325 165 -325 135 0
135 0 3 338 2 338 -67 -3 -68 -3 0 -323 c0 -263 -2 -319 -13 -305 -7 10 -82
156 -168 325 l-155 308 -140 0 -139 0 2 -337z"/>
<path d="M3450 650 l0 -60 135 0 135 0 0 -280 0 -280 65 0 65 0 0 280 0 280
130 0 130 0 0 60 0 60 -330 0 -330 0 0 -60z"/>
<path d="M4581 568 c-172 -479 -189 -530 -176 -534 7 -3 36 -4 65 -2 l52 3 37
100 36 100 167 3 166 2 27 -72 c57 -151 46 -138 113 -138 32 0 61 2 64 5 3 3
-18 70 -47 148 -28 78 -82 229 -120 335 l-68 192 -132 0 -132 0 -52 -142z
m238 -21 c28 -76 55 -146 61 -157 10 -19 7 -20 -110 -20 -66 0 -120 4 -120 9
0 4 18 57 40 117 22 60 48 128 56 152 9 24 18 42 20 40 2 -2 26 -66 53 -141z"/>
<path d="M5550 705 c0 -3 0 -155 0 -337 l-1 -333 63 0 63 0 3 86 3 87 162 4
c141 3 167 6 202 25 47 25 96 74 121 123 28 55 25 153 -7 215 -28 56 -91 109
-147 125 -36 10 -462 15 -462 5z m409 -115 c46 -13 79 -46 92 -92 8 -32 6 -46
-10 -82 -28 -64 -53 -74 -220 -82 l-141 -7 0 137 0 136 123 0 c67 0 137 -4
156 -10z"/>
<path d="M6590 370 l0 -341 63 3 62 3 3 338 2 337 -65 0 -65 0 0 -340z"/>
<path d="M7150 650 l0 -60 274 -2 275 -3 -277 -205 -277 -206 0 -69 0 -70 375
0 375 0 3 57 4 58 -288 2 -288 3 277 208 277 207 0 70 0 70 -365 0 -365 0 0
-60z"/>
<path d="M8329 705 c0 -3 -1 -29 -1 -57 l-1 -53 276 -5 276 -5 -280 -205 -279
-205 2 -70 3 -70 373 -3 372 -2 0 60 0 60 -282 2 -283 3 278 208 277 208 0 69
0 70 -365 0 c-201 0 -365 -2 -366 -5z"/>
<path d="M9677 553 c-69 -194 -173 -482 -182 -505 -6 -16 0 -18 59 -18 76 0
63 -15 121 138 l27 72 165 -2 165 -3 37 -100 36 -100 68 -3 c37 -2 67 -1 67 2
0 2 -43 123 -95 268 -53 145 -107 296 -122 336 l-26 72 -131 0 -132 0 -57
-157z m254 -29 l57 -154 -119 0 c-66 0 -119 3 -119 8 0 18 113 312 119 307 3
-4 31 -76 62 -161z"/>
</g>
</svg>

